<svg width="189" height="32" viewBox="0 0 189 32" fill="none" xmlns="http://www.w3.org/2000/svg">
<path fill-rule="evenodd" clip-rule="evenodd" d="M65.9166 14.516L63.9153 10.0964L61.8984 14.516H65.9166ZM62.0535 6.96558H65.7783C66.4254 8.36838 71.7894 19.9028 71.7894 19.9028H68.3846L66.9834 16.8716H60.8027L59.4401 19.9052H56.022L62.0535 6.96558Z" fill="#0032A0"/>
<path fill-rule="evenodd" clip-rule="evenodd" d="M106.069 9.86255C103.911 9.86255 102.862 10.9953 102.862 10.9953L102.685 10.0593H99.7725C99.8879 10.4109 100.08 11.0613 100.08 11.6373V19.9053H102.961V14.1705C102.961 12.6357 103.911 11.8377 106.069 11.8377C107.254 11.8377 107.981 12.2289 107.981 14.1705V19.9053H110.849V14.1705C110.849 11.2449 109.903 9.86255 106.069 9.86255Z" fill="#0032A0"/>
<path fill-rule="evenodd" clip-rule="evenodd" d="M115.999 13.9909C116.168 12.7777 116.72 11.8477 118.992 11.8477C120.66 11.8477 121.257 12.9157 121.354 13.9909H115.999ZM118.992 9.89526C114.1 9.89526 113.012 12.1813 113.012 14.9833C113.012 17.8153 114.079 20.1097 119.231 20.1097C121.117 20.1097 122.879 19.7581 123.28 19.6753C123.357 19.1737 123.525 18.0853 123.579 17.7121C123.303 17.7397 121.071 18.1501 119.231 18.1501C116.836 18.1501 116.195 17.2393 115.999 15.9733H124.28V14.9833C124.28 11.4541 122.39 9.89526 118.992 9.89526Z" fill="#0032A0"/>
<path fill-rule="evenodd" clip-rule="evenodd" d="M21.9003 18.1652C19.4949 18.1652 18.7805 16.9712 18.7805 14.9924C18.7805 13.0496 19.4949 11.8616 21.9003 11.8616C24.2913 11.8616 25.0117 13.0496 25.0117 14.9924C25.0117 16.9712 24.2913 18.1652 21.9003 18.1652ZM21.9003 9.88745C18.3042 9.88745 15.9072 11.4643 15.9072 14.9923C15.9072 18.5623 18.3042 20.1187 21.9003 20.1187C25.4916 20.1187 27.8789 18.5623 27.8789 14.9923C27.8789 11.4643 25.4916 9.88745 21.9003 9.88745Z" fill="#0032A0"/>
<path fill-rule="evenodd" clip-rule="evenodd" d="M51.0002 16.1577C51.0002 17.9829 49.2479 18.1425 47.6435 18.1425C47.089 18.1425 46.2147 18.0237 46.2147 16.9473C46.2147 16.2369 47.1841 15.7617 48.3627 15.7617H51.0002V16.1577ZM53.8687 13.0293C53.8687 11.0481 51.7423 9.86255 48.6033 9.86255C46.9868 9.86255 45 10.4925 44.3168 10.7277C44.2519 11.1405 44.0474 12.4401 44.0065 12.7125C44.6307 12.5745 47.0794 11.8377 48.6033 11.8377C50.1752 11.8377 51.0002 12.3729 51.0002 13.1469V13.9821C51.0002 13.9821 49.0591 13.7925 48.3627 13.7925C45.2297 13.7925 43.333 14.9097 43.333 16.9473C43.333 19.5285 46.187 20.0925 47.6435 20.0925C49.6075 20.0925 50.6358 19.5705 51.1181 19.1325L51.2841 19.9053H54.1633C54.1297 19.7517 53.8687 19.0617 53.8687 18.1425V13.0293Z" fill="#0032A0"/>
<path fill-rule="evenodd" clip-rule="evenodd" d="M7.89204 6.58595C11.268 6.58115 13.3643 7.64555 14.5286 9.31955L11.5134 10.4884C10.8627 9.56675 9.77186 8.96195 7.93053 8.95115H7.85596C6.05431 8.96075 4.97669 9.52715 4.31761 10.4116C3.74151 11.1784 3.42761 12.166 3.42761 13.2868V13.4716H3.4252C3.43843 14.5408 3.75595 15.574 4.31761 16.3168C4.97669 17.194 6.05431 17.7736 7.85596 17.7772H7.93053C9.73699 17.7736 10.8242 17.1796 11.4809 16.2892L14.5286 17.4556C13.3583 19.1068 11.2392 20.1184 7.90767 20.1184H7.89204C4.93099 20.1184 2.94532 19.3384 1.72699 17.9944C0.618094 16.7872 0.0540263 15.1828 0.0576344 13.4068V13.2868C0.0540263 11.5504 0.619297 9.93995 1.72458 8.73995C2.94292 7.39955 4.92978 6.58355 7.89204 6.58595Z" fill="#0032A0"/>
<path fill-rule="evenodd" clip-rule="evenodd" d="M91.4577 18.3421V6.97095H88.582V18.3421C88.582 19.0321 88.8262 19.7365 88.8875 19.9057H91.7656C91.7235 19.7389 91.4577 19.0645 91.4577 18.3421Z" fill="#0032A0"/>
<path fill-rule="evenodd" clip-rule="evenodd" d="M81.8526 14.1516C81.8646 12.6372 82.9867 11.838 84.9664 11.838C85.2959 11.838 86.5912 12.0024 87.1469 12.0756C87.1216 11.8224 86.922 10.6008 86.839 10.0968C86.4289 10.02 85.51 9.86279 84.9664 9.86279C83.2802 9.86279 82.3337 10.4808 81.8093 10.9488L81.5663 10.0596H78.6738C78.7267 10.2588 78.9721 10.9296 78.9769 11.6124V19.9032H81.8526V14.1516Z" fill="#0032A0"/>
<path fill-rule="evenodd" clip-rule="evenodd" d="M36.0215 18.1523C33.5825 18.1523 32.9102 16.7591 32.9102 14.9855C32.9619 13.0991 33.5825 11.8499 36.0215 11.8499C38.2297 11.8499 38.6591 13.2371 38.6591 14.9855C38.6591 16.7591 38.2297 18.1523 36.0215 18.1523ZM36.0215 9.87354C34.2283 9.87354 32.8392 10.9247 32.8392 10.9247C32.8392 10.9247 32.6852 10.3427 32.6215 10.0739H29.729C29.8324 10.4291 30.0369 11.1143 30.0369 11.8499V23.0399H32.9102V19.1423C33.4887 19.5635 34.5615 20.1119 36.0215 20.1119C40.8408 20.1119 41.5359 17.8151 41.5359 14.9855C41.5359 12.1835 40.8408 9.87354 36.0215 9.87354Z" fill="#0032A0"/>
<path fill-rule="evenodd" clip-rule="evenodd" d="M134.642 10.392V12.6192C134.081 12.3168 133.494 12.084 132.885 11.9316C132.269 11.7768 131.657 11.7 131.046 11.7C130.364 11.7 129.848 11.784 129.496 11.9508C129.153 12.1128 128.974 12.3636 128.974 12.6888C128.974 13.1544 129.723 13.5288 131.21 13.8204L131.323 13.8444L132.205 14.0148C133.325 14.2368 134.142 14.592 134.658 15.0804C135.18 15.5796 135.434 16.2396 135.434 17.0712C135.434 18.0852 135.039 18.846 134.248 19.344C133.463 19.8468 132.269 20.0952 130.682 20.0952C129.98 20.0952 129.253 20.0472 128.513 19.95C127.781 19.842 127.029 19.6968 126.273 19.4904V17.2452C126.948 17.5728 127.635 17.8152 128.335 17.9856C129.033 18.1596 129.711 18.246 130.367 18.246C131.081 18.246 131.626 18.1536 131.996 17.9796C132.362 17.8008 132.552 17.55 132.552 17.2128C132.552 16.8912 132.416 16.6404 132.16 16.4604C131.899 16.2816 131.27 16.1076 130.292 15.9072L129.442 15.7452C128.277 15.5352 127.421 15.1848 126.889 14.7156C126.355 14.2392 126.084 13.6176 126.084 12.828C126.084 11.8824 126.489 11.1564 127.304 10.6404C128.123 10.1088 129.265 9.85083 130.741 9.85083C131.402 9.85083 132.061 9.89523 132.73 9.98163C133.386 10.0728 134.024 10.2108 134.642 10.392Z" fill="#0032A0"/>
<path fill-rule="evenodd" clip-rule="evenodd" d="M95.7656 9.29773C96.3862 9.29773 96.8156 9.21853 97.0453 9.04933C97.2726 8.87533 97.3893 8.57293 97.3893 8.12173C97.3893 7.69573 97.2774 7.39213 97.0597 7.22293C96.8312 7.05493 96.4127 6.96973 95.7897 6.96973C95.157 6.96973 94.7325 7.05973 94.5016 7.23373C94.2743 7.40893 94.166 7.71973 94.166 8.16613C94.166 8.59933 94.2694 8.88973 94.4859 9.05533C94.712 9.21853 95.1366 9.29773 95.7656 9.29773ZM97.2066 18.3421V10.0549H94.3369V18.3421C94.3369 19.0729 94.6075 19.8025 94.6472 19.9057H97.5157C97.4639 19.7233 97.2066 19.0453 97.2066 18.3421Z" fill="#0032A0"/>
<path fill-rule="evenodd" clip-rule="evenodd" d="M74.6553 9.29773C75.2783 9.29773 75.7016 9.21853 75.9349 9.04933C76.161 8.87533 76.2837 8.57293 76.2837 8.12173C76.2837 7.69573 76.1634 7.39213 75.9482 7.22293C75.7221 7.05493 75.3011 6.96973 74.6817 6.96973C74.0479 6.96973 73.6221 7.05973 73.3936 7.23373C73.1687 7.40893 73.0557 7.71973 73.0557 8.16613C73.0557 8.59933 73.1639 8.88973 73.3816 9.05533C73.6017 9.21853 74.0262 9.29773 74.6553 9.29773ZM76.0998 18.3421V10.0549H73.2266V18.3421C73.2266 19.0729 73.5008 19.8025 73.5405 19.9057H76.4053C76.3536 19.7233 76.0998 19.0453 76.0998 18.3421Z" fill="#0032A0"/>
<path fill-rule="evenodd" clip-rule="evenodd" d="M174.9 27.8887H174.609V27.4195H175.075C175.274 27.4195 175.52 27.4531 175.52 27.6451C175.52 27.9331 175.126 27.8887 174.9 27.8887ZM175.771 27.6451C175.771 27.2539 175.454 27.1663 175.13 27.1663H174.357V28.9879H174.609V28.1563H174.9L175.445 28.9879H175.748L175.203 28.1563C175.525 28.1443 175.771 28.0111 175.771 27.6451Z" fill="#0032A0"/>
<path fill-rule="evenodd" clip-rule="evenodd" d="M174.961 29.4802C174.216 29.4802 173.557 28.873 173.557 28.0954C173.557 27.307 174.216 26.6914 174.961 26.6914C175.715 26.6914 176.368 27.307 176.368 28.0954C176.368 28.873 175.715 29.4802 174.961 29.4802ZM174.961 26.4634C174.044 26.4634 173.305 27.1618 173.305 28.0954C173.305 29.0182 174.044 29.7382 174.961 29.7382C175.887 29.7382 176.623 29.0182 176.623 28.0954C176.623 27.1618 175.887 26.4634 174.961 26.4634Z" fill="#0032A0"/>
<path fill-rule="evenodd" clip-rule="evenodd" d="M140.393 13.1248V14.0584C143.559 12.826 146.754 12.0748 149.819 11.6308C146.994 11.5576 143.672 12.0376 140.393 13.1248Z" fill="#0032A0"/>
<path fill-rule="evenodd" clip-rule="evenodd" d="M157.705 14.0986C156.958 13.5586 156.175 13.0654 155.164 12.6514C155.502 12.6298 155.852 12.5758 156.248 12.5554C156.88 12.973 157.729 13.6366 158.232 14.269L157.705 14.0986ZM150.745 10.2144C149.967 9.92155 149.047 9.72595 148.133 9.59635C148.528 9.50875 148.916 9.43315 149.357 9.37915C149.998 9.55435 150.845 9.85795 151.653 10.356L150.745 10.2144ZM140.392 8.2091C141.245 8.1839 142.22 8.46829 143.276 8.60749L141.42 8.84509C141.104 8.85829 140.749 8.88709 140.392 8.92189V9.33949C141.737 9.08869 143.208 8.92549 144.571 8.91349C156.522 6.06109 166.421 8.74669 166.421 8.74669C164.297 8.26189 152.462 6.64669 140.392 11.3903V12.1103C142.184 11.5043 144.077 11.0363 145.888 10.8215C148.574 10.4903 151.071 10.6379 153.173 11.2331C162.006 10.6007 168.407 12.4943 168.407 12.4943C166.004 12.1019 153.108 10.3307 140.392 16.1495V16.7279C143.912 15.0443 147.605 14.0735 150.752 13.8659C153.943 13.6943 156.797 14.1491 158.943 15.4259C164.002 15.3479 167.858 16.0031 170.013 16.5275V0.191895H140.392V8.2091Z" fill="#0032A0"/>
<path fill-rule="evenodd" clip-rule="evenodd" d="M140.393 17.9203V19.7251C145.595 17.1943 150.899 15.9919 155.52 15.5935C151.299 14.8471 145.888 15.6163 140.393 17.9203Z" fill="#0032A0"/>
<path fill-rule="evenodd" clip-rule="evenodd" d="M163.129 20.0705C162.232 18.7457 161.095 17.7449 159.519 16.9781C159.99 16.9217 160.583 16.9049 161.026 16.8845C161.183 17.0009 161.333 17.1461 161.475 17.3225C161.529 17.4005 163.287 19.1321 163.876 20.8949L163.129 20.0705ZM140.393 22.1046V22.8546C140.75 22.6506 141.109 22.4562 141.445 22.275C144.107 20.8434 146.766 19.8462 149.424 19.239C151.94 18.639 154.405 18.4266 156.657 18.627C160.916 19.0098 163.974 20.871 165.448 24.0846C165.461 24.1086 166.513 26.469 166.614 28.695L166.103 27.4206C165.969 26.7846 165.794 26.1306 165.461 25.545C164.37 23.4234 162.244 21.9006 159.375 21.0078C156.77 20.1846 153.35 20.1486 149.801 20.8434C146.651 21.441 143.444 22.6314 140.393 24.1434V29.7402H140.689C142.519 28.3782 144.494 27.3798 146.547 26.565C151.928 24.249 157.162 23.5482 161.09 24.591C163.974 25.4166 165.859 27.1206 166.626 29.7402H170.014V16.7646C165.168 16.2126 152.251 15.3186 140.393 22.1046Z" fill="#0032A0"/>
<path fill-rule="evenodd" clip-rule="evenodd" d="M160.52 26.6723C157.95 25.9907 154.993 25.9499 151.715 26.5571C148.79 27.0923 145.724 28.0859 142.776 29.7407H165.273C164.225 28.2119 162.557 27.2327 160.52 26.6723Z" fill="#0032A0"/>
</svg>
