<svg width="132" height="48" viewBox="0 0 132 48" fill="none" xmlns="http://www.w3.org/2000/svg">
<path fill-rule="evenodd" clip-rule="evenodd" d="M23.0764 41.709L19.9442 48.0001L23.0764 45.9655L26.2086 48.0001L23.0764 41.709Z" fill="white"/>
<path d="M41.4679 35.739C38.6035 40.4239 34.0257 43.9041 28.5912 45.323L28.725 45.5639C34.2666 44.1183 38.9247 40.531 41.8159 35.739H41.4679Z" fill="white"/>
<path d="M5.70215 12.6358C8.64693 8.35244 13.1177 5.19349 18.338 3.93526L18.4986 3.61401C13.0641 4.87224 8.37922 8.16505 5.35413 12.6358H5.70215Z" fill="white"/>
<path d="M28.8053 4.09591C33.7579 5.43445 38.0145 8.51308 40.8522 12.6358H41.1734C38.2554 8.32569 33.8115 5.08643 28.6447 3.77466L28.8053 4.09591Z" fill="white"/>
<path d="M17.6151 45.2159C12.3413 43.7702 7.87058 40.3168 5.05965 35.739H4.7384C7.54933 40.4239 12.1004 43.9576 17.4813 45.4568L17.6151 45.2159Z" fill="white"/>
<path fill-rule="evenodd" clip-rule="evenodd" d="M23.5315 0L20.3994 6.26436L23.5315 4.22978L26.6637 6.26436L23.5315 0Z" fill="white"/>
<path d="M5.62186 27.5204C5.62186 29.314 4.31009 30.7328 2.54322 30.7328H0V24.3079H2.54322C4.31009 24.3079 5.62186 25.7267 5.62186 27.5204ZM4.41718 27.5204C4.41718 26.3424 3.64083 25.5393 2.54322 25.5393H1.25823V29.5282H2.54322C3.64083 29.5014 4.41718 28.6983 4.41718 27.5204Z" fill="white"/>
<path d="M11.2705 29.5014V30.7061H7.30841V24.3079H11.2169V25.5125H8.56664V26.8779H11.0028V28.0558H8.56664V29.5014H11.2705Z" fill="white"/>
<path d="M12.609 29.2604L13.6798 28.6179C13.9208 29.2068 14.3491 29.6084 15.1522 29.6084C15.9018 29.6084 16.1695 29.2871 16.1695 28.9391C16.1695 28.4572 15.7412 28.2698 14.7774 28.0021C13.7869 27.7077 12.8499 27.3061 12.8499 26.1014C12.8499 24.8967 13.8672 24.2007 14.9648 24.2007C16.0089 24.2007 16.812 24.7361 17.2404 25.6463L16.1695 26.262C15.9286 25.7802 15.5806 25.4321 14.9381 25.4321C14.4027 25.4321 14.1082 25.6998 14.1082 26.0746C14.1082 26.4762 14.3491 26.6904 15.3129 26.9581C16.3301 27.2793 17.401 27.6273 17.401 28.9123C17.401 30.117 16.4372 30.8398 15.0719 30.8398C13.8137 30.8398 12.957 30.2241 12.609 29.2604Z" fill="white"/>
<path d="M23.0764 25.5392H21.3363V30.7327H20.0781V25.5392H18.3647V24.3345H23.0764V25.5392Z" fill="white"/>
<path d="M25.8338 24.3079V30.7061H24.5756V24.3079H25.8338Z" fill="white"/>
<path d="M32.7674 24.3079V30.7061H31.8037L29.0463 26.7975V30.7061H27.7881V24.3079H28.7518L31.4825 28.2164V24.3079H32.7674Z" fill="white"/>
<path d="M34.454 27.5203C34.454 25.6463 35.9264 24.2007 37.7736 24.2007C39.6207 24.2007 41.0931 25.6463 41.0931 27.5203C41.0931 29.3942 39.6207 30.8398 37.7736 30.8398C35.9264 30.8398 34.454 29.3942 34.454 27.5203ZM39.8349 27.5203C39.8349 26.2888 38.9247 25.4054 37.7736 25.4054C36.6224 25.4054 35.7122 26.262 35.7122 27.5203C35.7122 28.7517 36.6224 29.6084 37.7736 29.6084C38.9515 29.6084 39.8349 28.7517 39.8349 27.5203Z" fill="white"/>
<path d="M42.2175 29.2604L43.2884 28.6179C43.5293 29.2068 43.9576 29.6084 44.7608 29.6084C45.5103 29.6084 45.778 29.2871 45.778 28.9391C45.778 28.4572 45.3497 28.2698 44.386 28.0021C43.3954 27.7077 42.4585 27.3061 42.4585 26.1014C42.4585 24.8967 43.4758 24.2007 44.5734 24.2007C45.6174 24.2007 46.4205 24.7361 46.8489 25.6463L45.778 26.262C45.5371 25.7802 45.1891 25.4321 44.5466 25.4321C44.0112 25.4321 43.7167 25.6998 43.7167 26.0746C43.7167 26.4762 43.9576 26.6904 44.9214 26.9581C45.9387 27.2793 47.0095 27.6273 47.0095 28.9123C47.0095 30.117 46.0457 30.8398 44.6804 30.8398C43.4222 30.8398 42.5655 30.2241 42.2175 29.2604Z" fill="white"/>
<path d="M12.2075 16.1697V20.4798H11.7524L9.53039 17.2673V20.4798H8.9682V16.1697H9.4233L11.6453 19.3822V16.1697H12.2075Z" fill="white"/>
<path d="M14.2153 19.0341V16.1697H14.7775V19.0074C14.7775 19.5963 15.1255 19.9979 15.8215 19.9979C16.5176 19.9979 16.8656 19.5963 16.8656 19.0074V16.1697H17.4278V19.0341C17.4278 19.9711 16.7585 20.5601 15.8215 20.5601C14.9113 20.5601 14.2153 19.9711 14.2153 19.0341Z" fill="white"/>
<path d="M22.0591 19.9444V20.4798H19.4891V16.1697H22.0324V16.7051H20.0513V18.0436H21.8717V18.579H20.0513V19.9444H22.0591Z" fill="white"/>
<path d="M23.478 16.1697H24.0937L25.3519 19.757L26.6101 16.1697H27.2259L25.6732 20.4798H25.0307L23.478 16.1697Z" fill="white"/>
<path d="M28.4305 18.3112C28.4305 17.053 29.4211 16.0625 30.6525 16.0625C31.884 16.0625 32.9013 17.053 32.9013 18.3112C32.9013 19.5427 31.9107 20.56 30.6525 20.56C29.3943 20.56 28.4305 19.5695 28.4305 18.3112ZM32.3391 18.3112C32.3391 17.3743 31.6163 16.6247 30.6793 16.6247C29.7423 16.6247 29.0195 17.3475 29.0195 18.3112C29.0195 19.2482 29.7423 19.9978 30.6793 19.9978C31.6163 19.9978 32.3391 19.275 32.3391 18.3112Z" fill="white"/>
<path d="M34.3469 19.4892L34.8288 19.1947C34.9894 19.6766 35.3642 19.971 35.9799 19.971C36.5957 19.971 36.8901 19.7033 36.8901 19.3018C36.8901 18.8467 36.5154 18.7128 35.8729 18.5254C35.1768 18.3112 34.5075 18.0971 34.5075 17.294C34.5075 16.5176 35.15 16.0625 35.8729 16.0625C36.5689 16.0625 37.1043 16.4641 37.3452 16.9995L36.8634 17.2672C36.7028 16.8924 36.4083 16.5979 35.8729 16.5979C35.4178 16.5979 35.0965 16.8389 35.0965 17.2404C35.0965 17.642 35.391 17.7758 36.0067 17.99C36.7563 18.2309 37.4791 18.4719 37.4791 19.3018C37.4791 20.0513 36.8634 20.5332 35.9799 20.5332C35.1768 20.56 34.5879 20.1584 34.3469 19.4892Z" fill="white"/>
</svg>
