<svg width="169" height="16" viewBox="0 0 169 16" fill="none" xmlns="http://www.w3.org/2000/svg">
<mask id="mask0_8828_1868" style="mask-type:alpha" maskUnits="userSpaceOnUse" x="150" y="0" width="5" height="5">
<path fill-rule="evenodd" clip-rule="evenodd" d="M150.588 0.275879H154.87V4.62609H150.588V0.275879Z" fill="white"/>
</mask>
<g mask="url(#mask0_8828_1868)">
<path fill-rule="evenodd" clip-rule="evenodd" d="M150.588 4.62598C151.181 3.81881 151.842 3.0417 152.565 2.30377C153.295 1.56446 154.066 0.887773 154.87 0.275635L154.009 3.66377L150.588 4.62598Z" fill="#D0D2D3"/>
</g>
<path fill-rule="evenodd" clip-rule="evenodd" d="M156.567 6.08837C155.558 5.98823 154.542 5.81692 153.529 5.56892C152.512 5.32009 151.53 5.00423 150.588 4.62603L154.008 3.66382L156.567 6.08837Z" fill="#58585B"/>
<path fill-rule="evenodd" clip-rule="evenodd" d="M154.87 0.277832C155.285 1.18514 155.64 2.13356 155.93 3.11838C156.218 4.10763 156.431 5.09907 156.568 6.09052L154.008 3.66376L154.87 0.277832Z" fill="#939597"/>
<path fill-rule="evenodd" clip-rule="evenodd" d="M149.38 11.5883C148.781 10.7845 148.231 9.92875 147.742 9.02585C147.25 8.11744 146.832 7.18971 146.487 6.24902L149.504 8.09923L149.38 11.5883Z" fill="#939597"/>
<path fill-rule="evenodd" clip-rule="evenodd" d="M152.647 6.46118C152.236 7.37291 151.757 8.26725 151.203 9.13566C150.648 10.0085 150.038 10.8253 149.38 11.5884L149.504 8.09897L152.647 6.46118Z" fill="#58585B"/>
<path fill-rule="evenodd" clip-rule="evenodd" d="M146.487 6.24998C147.497 6.14212 148.526 6.1035 149.57 6.13798C150.617 6.17467 151.645 6.28226 152.647 6.46129L149.504 8.09909L146.487 6.24998Z" fill="#D0D2D3"/>
<path fill-rule="evenodd" clip-rule="evenodd" d="M155.756 14.8675C154.791 15.179 153.793 15.4267 152.764 15.6046C151.733 15.7823 150.705 15.8857 149.687 15.9172L152.412 13.6736L155.756 14.8675Z" fill="#58585B"/>
<path fill-rule="evenodd" clip-rule="evenodd" d="M151.794 10.2361C152.551 10.8987 153.271 11.6228 153.942 12.4096C154.615 13.1961 155.22 14.0173 155.756 14.8675L152.413 13.6736L151.794 10.2361Z" fill="#939597"/>
<path fill-rule="evenodd" clip-rule="evenodd" d="M149.687 15.9171C149.894 14.9419 150.173 13.9698 150.532 13.0064C150.89 12.0387 151.313 11.1154 151.796 10.2349L152.412 13.6735L149.687 15.9171Z" fill="#D0D2D3"/>
<path fill-rule="evenodd" clip-rule="evenodd" d="M160.904 9.93115C160.908 10.9267 160.84 11.9356 160.695 12.9505C160.548 13.9678 160.331 14.9601 160.046 15.9193L158.714 12.6812L160.904 9.93115Z" fill="#939597"/>
<path fill-rule="evenodd" clip-rule="evenodd" d="M155.19 12.196C156.067 11.695 156.992 11.2476 157.961 10.8641C158.931 10.4782 159.915 10.1679 160.905 9.93091L158.714 12.681L155.19 12.196Z" fill="#D0D2D3"/>
<path fill-rule="evenodd" clip-rule="evenodd" d="M160.046 15.9182C159.165 15.4247 158.309 14.8622 157.486 14.2308C156.66 13.5982 155.893 12.916 155.19 12.1963L158.714 12.6813L160.046 15.9182Z" fill="#58585B"/>
<path fill-rule="evenodd" clip-rule="evenodd" d="M157.711 3.60229C158.676 3.90629 159.634 4.28229 160.572 4.73057C161.514 5.18105 162.408 5.69057 163.25 6.25305L159.7 6.49554L157.711 3.60229Z" fill="#939597"/>
<path fill-rule="evenodd" clip-rule="evenodd" d="M158.14 9.63359C157.925 8.65952 157.778 7.65952 157.705 6.63801C157.633 5.61208 157.635 4.59801 157.711 3.60132L159.7 6.49566L158.14 9.63359Z" fill="#D0D2D3"/>
<path fill-rule="evenodd" clip-rule="evenodd" d="M163.25 6.25317C162.496 6.92131 161.688 7.54724 160.823 8.12076C159.953 8.69593 159.057 9.19938 158.141 9.63359L159.7 6.49566L163.25 6.25317Z" fill="#58585B"/>
<path fill-rule="evenodd" clip-rule="evenodd" d="M1.84717 9.4962C1.99113 9.19082 2.94233 7.14337 3.13437 6.72461C3.33034 7.14337 4.28829 9.19082 4.43084 9.4962H1.84717ZM3.43337 5.88403H2.84516L0 11.9558H0.69899C0.69899 11.9558 1.51298 10.2225 1.57877 10.0807H4.69526C4.76331 10.2247 5.56577 11.9558 5.56577 11.9558H6.28078L3.43337 5.88403Z" fill="#231F20"/>
<path fill-rule="evenodd" clip-rule="evenodd" d="M76.3949 8.92786C76.3949 10.8454 77.7538 12.0845 79.7506 12.0845C81.6103 12.0845 82.735 10.8531 82.8843 9.63379L82.9028 9.48537H82.2314L82.2112 9.59544C81.9986 10.7651 81.055 11.4909 79.7506 11.4909C77.8263 11.4909 77.0579 10.1648 77.0579 8.92344C77.0579 7.40675 78.1741 6.34717 79.7745 6.34717C80.9931 6.34717 81.8698 6.91765 82.1189 7.87406L82.1454 7.97531H82.8157L82.778 7.81255C82.4738 6.50441 81.3789 5.75269 79.7745 5.75269C77.5004 5.75269 76.3949 7.39875 76.3949 8.92786ZM84.474 5.88206V11.956H89.469V11.3621H85.1154V9.10662H89.2466V8.52262H85.1154V6.47627H89.419V5.88206H84.474ZM73.963 5.88206V10.9505C73.5643 10.4768 69.4806 5.88206 69.4806 5.88206H68.8376V11.956H69.4716V6.88758C69.87 7.36041 73.9538 11.956 73.9538 11.956H74.5968V5.88206H73.963ZM58.8183 11.956H59.4555V5.88206H58.8183V11.956ZM53.0296 5.88206V11.956H57.4822V11.3621H53.6743V5.88206H53.0296ZM47.1891 5.88206V11.956H51.6502V11.3621H47.8336V5.88206H47.1891ZM64.1651 6.72262C64.3591 7.1411 65.3114 9.19131 65.452 9.49531H62.87C63.012 9.19075 63.9705 7.1411 64.1651 6.72262ZM63.8663 5.88208L61.02 11.956H61.7294C61.7294 11.956 62.5338 10.2225 62.6002 10.0793H65.7184C65.7853 10.2225 66.5984 11.956 66.5984 11.956H67.3025L64.4655 5.88208H63.8663ZM42.4787 6.72262C42.6724 7.1411 43.6236 9.19131 43.7656 9.49531H41.1833C41.3253 9.19075 42.283 7.1411 42.4787 6.72262ZM42.1798 5.88206L39.3332 11.956H40.0432C40.0432 11.956 40.8465 10.2225 40.9134 10.0793H44.031C44.0982 10.2225 44.9114 11.956 44.9114 11.956H45.6146L42.7784 5.88206H42.1798ZM32.7235 6.47627C33.7011 6.47627 34.1766 6.8222 34.1766 7.53393C34.1766 8.3331 33.6708 8.72151 32.6318 8.72151H30.1764V6.47627H32.7235ZM29.5319 5.88206V11.956H30.1764V9.31517H32.6838C33.7872 9.31517 34.0464 9.53227 34.0748 10.4763C34.0978 11.4628 34.1431 11.7866 34.277 11.9171L34.3169 11.956H34.9818L34.8775 11.7604C34.7763 11.5717 34.7403 11.1952 34.7308 10.2134C34.7215 9.612 34.386 9.1742 33.8538 8.9822C34.548 8.67682 34.8325 8.06027 34.8325 7.55351C34.8325 6.42882 34.1324 5.88206 32.6934 5.88206H29.5319ZM24.8105 6.72262C25.0059 7.1411 25.9639 9.19075 26.1064 9.49531H23.5239C23.6647 9.19131 24.6162 7.1411 24.8105 6.72262ZM24.5212 5.88206L21.6743 11.956H22.3739C22.3739 11.956 23.1876 10.2225 23.2545 10.0793H26.3721C26.4388 10.2225 27.2421 11.956 27.2421 11.956H27.9565L25.1097 5.88206H24.5212ZM16.279 5.88206V6.47627H18.6762V11.956H19.3131V6.47627H21.7103V5.88206H16.279ZM9.94531 9.96179C9.94531 10.5637 10.1264 11.007 10.4852 11.3604C10.9612 11.8313 11.8109 12.0691 12.8754 12.0691C13.4726 12.0691 15.5159 11.9408 15.5159 10.2765C15.5159 8.812 14.1542 8.67737 12.9524 8.5582V8.55765C11.713 8.43544 10.7967 8.30137 10.7967 7.47462C10.7967 7.06469 11.0118 6.76731 11.4541 6.56786C11.9096 6.36206 12.4008 6.33144 12.9105 6.33144C13.3033 6.33144 14.0234 6.39131 14.4291 6.78938C14.6172 6.97365 14.7128 7.26772 14.7128 7.55765L15.3373 7.56482C15.3373 7.11958 15.1928 6.6702 14.9063 6.3891C14.3833 5.87572 13.5049 5.76896 12.8599 5.76896C11.9734 5.76896 11.0995 5.95544 10.5628 6.48179C10.2827 6.7571 10.1413 7.09117 10.1413 7.47462C10.1413 8.90744 11.6278 9.02496 12.7947 9.12786C13.3475 9.17613 13.869 9.22248 14.2557 9.3891C14.665 9.56372 14.8565 9.85503 14.8565 10.3033C14.8565 10.5885 14.7598 10.8277 14.5692 11.0139C14.1165 11.4586 13.1768 11.5066 12.8346 11.5066C11.992 11.5066 11.3138 11.3276 10.9547 10.9753C10.6958 10.721 10.5628 10.4068 10.56 9.96124L9.94531 9.96179Z" fill="#231F20"/>
<path fill-rule="evenodd" clip-rule="evenodd" d="M100.564 5.85864H101.469V11.9599H100.838V6.68816H100.816L98.0774 11.9599H97.4816L94.7503 6.68292H94.7349V11.9599H94.0972V5.85864H95.0318L97.7993 11.164L100.564 5.85864Z" fill="#231F20"/>
<path fill-rule="evenodd" clip-rule="evenodd" d="M103.753 5.89111V11.9678H108.754V11.3706H104.399V9.11511H108.533V8.53332H104.399V6.48422H108.705V5.89111H103.753Z" fill="#231F20"/>
<path fill-rule="evenodd" clip-rule="evenodd" d="M117.176 5.86084H118.085V11.964H117.45V6.69615H117.431L114.689 11.964H114.097L111.362 6.68484H111.346V11.964H110.71V5.86084H111.641L114.411 11.1659L117.176 5.86084Z" fill="#231F20"/>
<path fill-rule="evenodd" clip-rule="evenodd" d="M121.023 9.09375H123.878C124.623 9.09375 125.181 9.34202 125.181 10.2248C125.181 11.0593 124.552 11.3842 123.722 11.3842H121.023V9.09375ZM120.386 11.9558H123.824C124.777 11.9558 125.867 11.4973 125.867 10.2248C125.867 9.44437 125.375 8.86147 124.561 8.73816V8.72271C125.297 8.54947 125.624 8.00161 125.624 7.41154C125.624 6.54147 125.119 5.8772 123.906 5.8772H120.386V11.9558ZM121.023 6.45071H123.782C124.484 6.45071 124.987 6.68796 124.987 7.43471C124.987 8.24989 124.432 8.52106 123.567 8.52106H121.023V6.45071Z" fill="#231F20"/>
<path fill-rule="evenodd" clip-rule="evenodd" d="M127.891 5.88623V11.9599H132.89V11.3635H128.531V9.10775H132.668V8.52485H128.531V6.47823H132.838V5.88623H127.891Z" fill="#231F20"/>
<path fill-rule="evenodd" clip-rule="evenodd" d="M137.936 8.72292H135.478V6.47823H138.025C139.003 6.47823 139.479 6.82471 139.479 7.53588C139.479 8.33478 138.976 8.72292 137.936 8.72292ZM140.179 11.7651C140.077 11.574 140.041 11.198 140.033 10.2145C140.024 9.61643 139.686 9.17837 139.155 8.98554C139.852 8.68126 140.133 8.06361 140.133 7.5563C140.133 6.42968 139.436 5.87988 137.995 5.87988H134.833V11.9599H135.478V9.31906H137.983C139.088 9.31906 139.349 9.53506 139.379 10.4785C139.401 11.4655 139.443 11.7897 139.58 11.9204L139.619 11.9599H140.283L140.179 11.7651Z" fill="#231F20"/>
<path fill-rule="evenodd" clip-rule="evenodd" d="M165.221 7.40457H165.38V6.0294H165.988V5.88623H164.613V6.0294H165.221V7.40457Z" fill="#231F20"/>
<mask id="mask1_8828_1868" style="mask-type:alpha" maskUnits="userSpaceOnUse" x="166" y="5" width="3" height="3">
<path fill-rule="evenodd" clip-rule="evenodd" d="M166.388 5.88623H168.227V7.40457H166.388V5.88623Z" fill="white"/>
</mask>
<g mask="url(#mask1_8828_1868)">
<path fill-rule="evenodd" clip-rule="evenodd" d="M168 5.88623H168.228V7.40457H168.066V6.09147H168.063L167.38 7.40457H167.233L166.552 6.08982H166.547V7.40457H166.388V5.88623H166.621L167.31 7.20706L168 5.88623Z" fill="#231F20"/>
</g>
</svg>
